<svg width="25" height="24" viewBox="0 0 25 24" fill="none" xmlns="http://www.w3.org/2000/svg">
<line x1="3.07724" y1="8.67856" x2="14.9268" y2="8.67856" stroke="#828282" stroke-width="1.5" stroke-linecap="round"/>
<line x1="9.75204" y1="15.5357" x2="21.6017" y2="15.5357" stroke="#828282" stroke-width="1.5" stroke-linecap="round"/>
<path d="M21.6017 8.57143C21.6017 9.59656 20.7979 10.3929 19.8486 10.3929C18.8993 10.3929 18.0956 9.59656 18.0956 8.57143C18.0956 7.5463 18.8993 6.75 19.8486 6.75C20.7979 6.75 21.6017 7.5463 21.6017 8.57143Z" stroke="#828282" stroke-width="1.5"/>
<path d="M6.91708 15.3333C6.91708 16.391 6.05837 17.25 4.99716 17.25C3.93596 17.25 3.07724 16.391 3.07724 15.3333C3.07724 14.2757 3.93596 13.4167 4.99716 13.4167C6.05837 13.4167 6.91708 14.2757 6.91708 15.3333Z" stroke="#828282" stroke-width="1.5"/>
</svg>
