<?xml version="1.0" encoding="UTF-8" standalone="no"?>
<svg
   xmlns:dc="http://purl.org/dc/elements/1.1/"
   xmlns:cc="http://creativecommons.org/ns#"
   xmlns:rdf="http://www.w3.org/1999/02/22-rdf-syntax-ns#"
   xmlns:svg="http://www.w3.org/2000/svg"
   xmlns="http://www.w3.org/2000/svg"
   xmlns:sodipodi="http://sodipodi.sourceforge.net/DTD/sodipodi-0.dtd"
   xmlns:inkscape="http://www.inkscape.org/namespaces/inkscape"
   version="1.1"
   id="svg2"
   xml:space="preserve"
   width="1440"
   height="1440"
   viewBox="0 0 1440 1440"
   sodipodi:docname="final logo (1).ai.ps"><metadata
     id="metadata8"><rdf:RDF><cc:Work
         rdf:about=""><dc:format>image/svg+xml</dc:format><dc:type
           rdf:resource="http://purl.org/dc/dcmitype/StillImage" /></cc:Work></rdf:RDF></metadata><defs
     id="defs6"><clipPath
       clipPathUnits="userSpaceOnUse"
       id="clipPath20"><path
         d="m 1237.45,5425.1 c 0,-673.69 546.14,-1219.83 1219.85,-1219.83 v 0 c 673.69,0 1219.84,546.14 1219.84,1219.83 v 0 c 0,449.8 -243.45,842.74 -605.77,1054.24 v 0 c -180.36,105.28 -390.17,165.6 -614.07,165.6 v 0 c -673.71,0 -1219.85,-546.14 -1219.85,-1219.84"
         id="path18" /></clipPath><linearGradient
       x1="0"
       y1="0"
       x2="1"
       y2="0"
       gradientUnits="userSpaceOnUse"
       gradientTransform="matrix(2439.68,0,0,-2439.68,1237.45,5425.1)"
       spreadMethod="pad"
       id="linearGradient28"><stop
         style="stop-opacity:1;stop-color:#50bef5"
         offset="0"
         id="stop22" /><stop
         style="stop-opacity:1;stop-color:#50bef5"
         offset="0.0251592"
         id="stop24" /><stop
         style="stop-opacity:1;stop-color:#47d7e1"
         offset="1"
         id="stop26" /></linearGradient><clipPath
       clipPathUnits="userSpaceOnUse"
       id="clipPath54"><path
         d="m 709.961,4963.54 c 0,-77.57 -3.871,-155.16 -12.449,-232.25 v 0 c -4.082,-36.7 -20.524,-212.82 -53.492,-212.82 v 0 h 131.871 v 642.89 c 0,0 -65.93,-32.97 -65.93,-197.82"
         id="path52" /></clipPath><linearGradient
       x1="0"
       y1="0"
       x2="1"
       y2="0"
       gradientUnits="userSpaceOnUse"
       gradientTransform="matrix(131.875,0,0,-131.875,644.017,4839.91)"
       spreadMethod="pad"
       id="linearGradient62"><stop
         style="stop-opacity:1;stop-color:#50bef5"
         offset="0"
         id="stop56" /><stop
         style="stop-opacity:1;stop-color:#50bef5"
         offset="0.0251592"
         id="stop58" /><stop
         style="stop-opacity:1;stop-color:#47d7e1"
         offset="1"
         id="stop60" /></linearGradient><clipPath
       clipPathUnits="userSpaceOnUse"
       id="clipPath72"><path
         d="M 775.891,4518.47 H 907.77 c -32.969,0 -49.411,176.12 -53.5,212.82 v 0 c -8.579,77.09 -12.442,154.68 -12.442,232.25 v 0 c 0,164.85 -65.937,197.82 -65.937,197.82 v 0 z"
         id="path70" /></clipPath><linearGradient
       x1="0"
       y1="0"
       x2="1"
       y2="0"
       gradientUnits="userSpaceOnUse"
       gradientTransform="matrix(-131.875,0,0,-131.875,907.767,4839.91)"
       spreadMethod="pad"
       id="linearGradient80"><stop
         style="stop-opacity:1;stop-color:#50bef5"
         offset="0"
         id="stop74" /><stop
         style="stop-opacity:1;stop-color:#50bef5"
         offset="0.0251592"
         id="stop76" /><stop
         style="stop-opacity:1;stop-color:#47d7e1"
         offset="1"
         id="stop78" /></linearGradient><clipPath
       clipPathUnits="userSpaceOnUse"
       id="clipPath90"><path
         d="m 759.41,5161.36 h 32.9688 v 511.012 H 759.41 Z"
         id="path88" /></clipPath><linearGradient
       x1="0"
       y1="0"
       x2="1"
       y2="0"
       gradientUnits="userSpaceOnUse"
       gradientTransform="matrix(32.9687,0,0,-32.9687,759.408,5416.86)"
       spreadMethod="pad"
       id="linearGradient98"><stop
         style="stop-opacity:1;stop-color:#50bef5"
         offset="0"
         id="stop92" /><stop
         style="stop-opacity:1;stop-color:#50bef5"
         offset="0.0251592"
         id="stop94" /><stop
         style="stop-opacity:1;stop-color:#47d7e1"
         offset="1"
         id="stop96" /></linearGradient><clipPath
       clipPathUnits="userSpaceOnUse"
       id="clipPath108"><path
         d="m 701.711,5219.05 c 0,-40.97 33.211,-74.17 74.18,-74.17 v 0 c 40.968,0 74.187,33.2 74.187,74.17 v 0 c 0,40.97 -33.219,74.18 -74.187,74.18 v 0 c -40.969,0 -74.18,-33.21 -74.18,-74.18"
         id="path106" /></clipPath><linearGradient
       x1="0"
       y1="0"
       x2="1"
       y2="0"
       gradientUnits="userSpaceOnUse"
       gradientTransform="matrix(148.359,0,0,-148.359,701.713,5219.05)"
       spreadMethod="pad"
       id="linearGradient116"><stop
         style="stop-opacity:1;stop-color:#50bef5"
         offset="0"
         id="stop110" /><stop
         style="stop-opacity:1;stop-color:#50bef5"
         offset="0.0251592"
         id="stop112" /><stop
         style="stop-opacity:1;stop-color:#47d7e1"
         offset="1"
         id="stop114" /></linearGradient><clipPath
       clipPathUnits="userSpaceOnUse"
       id="clipPath126"><path
         d="M 1859.82,6731.51 460,5520.4 2245.49,5701.65 3774.54,6902.99 Z"
         id="path124" /></clipPath><linearGradient
       x1="0"
       y1="0"
       x2="1"
       y2="0"
       gradientUnits="userSpaceOnUse"
       gradientTransform="matrix(3444.43,865.927,865.927,-3444.43,390.06,5798.6)"
       spreadMethod="pad"
       id="linearGradient134"><stop
         style="stop-opacity:1;stop-color:#50bef5"
         offset="0"
         id="stop128" /><stop
         style="stop-opacity:1;stop-color:#50bef5"
         offset="0.0251592"
         id="stop130" /><stop
         style="stop-opacity:1;stop-color:#47d7e1"
         offset="1"
         id="stop132" /></linearGradient><clipPath
       clipPathUnits="userSpaceOnUse"
       id="clipPath144"><path
         d="m 1237.45,5565.22 h 1923.91 v 856.012 H 1237.45 Z"
         id="path142" /></clipPath><clipPath
       clipPathUnits="userSpaceOnUse"
       id="clipPath150"><path
         d="m 1237.45,5565.22 h 1923.91 v 856.01 H 1237.45 Z"
         id="path148" /></clipPath><clipPath
       clipPathUnits="userSpaceOnUse"
       id="clipPath154"><path
         d="m 1237.45,5565.22 h 1923.91 v 856.012 H 1237.45 Z"
         id="path152" /></clipPath></defs><sodipodi:namedview
     pagecolor="#ffffff"
     bordercolor="#666666"
     borderopacity="1"
     objecttolerance="10"
     gridtolerance="10"
     guidetolerance="10"
     inkscape:pageopacity="0"
     inkscape:pageshadow="2"
     inkscape:window-width="640"
     inkscape:window-height="480"
     id="namedview4" /><g
     id="g10"
     inkscape:groupmode="layer"
     inkscape:label="ink_ext_XXXXXX"
     transform="matrix(1.3333333,0,0,-1.3333333,0,1440)"><g
       id="g12"
       transform="scale(0.1)"><g
         id="g14"><g
           id="g16"
           clip-path="url(#clipPath20)"><path
             d="m 1237.45,5425.1 c 0,-673.69 546.14,-1219.83 1219.85,-1219.83 v 0 c 673.69,0 1219.84,546.14 1219.84,1219.83 v 0 c 0,449.8 -243.45,842.74 -605.77,1054.24 v 0 c -180.36,105.28 -390.17,165.6 -614.07,165.6 v 0 c -673.71,0 -1219.85,-546.14 -1219.85,-1219.84"
             style="fill:url(#linearGradient28);fill-opacity:1;fill-rule:nonzero;stroke:none"
             id="path30" /></g></g><path
         d="m 3410.93,5143.83 v -211.27 h -688.64 v 830.81 h 673.26 v -211.26 h -398.76 v -97.32 h 350.25 v -201.77 h -350.25 v -109.19"
         style="fill:#ffffff;fill-opacity:1;fill-rule:nonzero;stroke:none"
         id="path32" /><path
         d="m 3810.85,4932.56 h 267.418 v 880.66 H 3810.85 Z"
         style="fill:#3f3833;fill-opacity:1;fill-rule:nonzero;stroke:none"
         id="path34" /><path
         d="m 4763.34,5388.32 c -18.14,-15.04 -29.98,-36.41 -35.5,-64.1 h 208.25 c -5.52,26.89 -17.36,48.07 -35.48,63.5 -18.16,15.43 -41.04,23.15 -68.63,23.15 -27.62,0 -50.5,-7.54 -68.64,-22.55 m 418.87,-193.46 h -449.64 c 9.48,-24.54 25.25,-43.32 47.34,-56.37 22.07,-13.06 49.7,-19.59 82.82,-19.59 28.41,0 52.25,3.55 71.61,10.68 19.3,7.12 40.39,19.38 63.29,36.79 l 139.62,-141.23 c -63.12,-69.64 -157.37,-104.45 -282.79,-104.45 -78.1,0 -146.73,14.43 -205.89,43.32 -59.18,28.87 -104.93,69.04 -137.27,120.46 -32.34,51.44 -48.5,109.2 -48.5,173.28 0,64.88 15.97,122.86 47.91,173.89 31.95,51.04 75.75,90.8 131.34,119.28 55.63,28.49 118.13,42.73 187.56,42.73 65.46,0 125.21,-13.06 179.25,-39.17 54.03,-26.11 97.05,-64.49 128.98,-115.12 31.96,-50.66 47.93,-111.19 47.93,-181.61 0,-3.96 -1.2,-24.92 -3.56,-62.89"
         style="fill:#3f3833;fill-opacity:1;fill-rule:nonzero;stroke:none"
         id="path36" /><path
         d="m 5721.17,4963.42 c -57.99,28.48 -103.35,68.44 -136.08,119.86 -32.75,51.44 -49.1,109.6 -49.1,174.48 0,64.87 16.35,122.85 49.1,173.88 32.73,51.04 78.09,90.8 136.08,119.28 57.97,28.49 123.64,42.73 197,42.73 78.88,0 146.32,-17.03 202.34,-51.04 56,-34.02 94.65,-81.11 115.95,-141.24 l -207.07,-102.06 c -25.24,56.96 -62.7,85.45 -112.39,85.45 -31.57,0 -57.81,-11.09 -78.69,-33.23 -20.91,-22.16 -31.36,-53.41 -31.36,-93.77 0,-41.15 10.45,-72.8 31.36,-94.95 20.88,-22.15 47.12,-33.23 78.69,-33.23 49.69,0 87.15,28.48 112.39,85.45 l 207.07,-102.06 c -21.3,-60.15 -59.95,-107.23 -115.95,-141.24 -56.02,-34.03 -123.46,-51.03 -202.34,-51.03 -73.36,0 -139.03,14.22 -197,42.72"
         style="fill:#3f3833;fill-opacity:1;fill-rule:nonzero;stroke:none"
         id="path38" /><path
         d="m 7075.38,4955.11 c -40.23,-22.94 -95.08,-34.41 -164.47,-34.41 -90.74,0 -160.53,21.96 -209.44,65.87 -48.92,43.91 -73.36,109.77 -73.36,197.6 v 166.17 h -88.75 v 195.83 h 88.75 v 181.6 h 267.41 v -181.6 h 132.53 v -195.83 h -132.53 v -163.78 c 0,-19.79 5.13,-35.23 15.39,-46.3 10.23,-11.08 23.66,-16.61 40.22,-16.61 22.88,0 42.99,5.93 60.35,17.8"
         style="fill:#3f3833;fill-opacity:1;fill-rule:nonzero;stroke:none"
         id="path40" /><path
         d="m 8150.94,5581.77 v -649.21 h -254.39 v 61.71 c -23.68,-24.53 -51.29,-42.92 -82.84,-55.18 -31.56,-12.27 -65.07,-18.4 -100.57,-18.4 -82.05,0 -147.91,25.12 -197.61,75.35 -49.69,50.25 -74.55,126.01 -74.55,227.3 v 358.43 h 267.42 v -312.13 c 0,-44.34 7.1,-75.97 21.3,-94.95 14.2,-19 35.1,-28.5 62.71,-28.5 26.04,0 47.72,10.48 65.07,31.45 17.36,20.97 26.04,54 26.04,99.11 v 305.02"
         style="fill:#3f3833;fill-opacity:1;fill-rule:nonzero;stroke:none"
         id="path42" /><path
         d="m 9033.61,5593.65 v -237.38 c -21.31,3.16 -41.02,4.76 -59.16,4.76 -91.52,0 -137.25,-46.7 -137.25,-140.06 v -288.41 h -267.43 v 649.22 h 254.41 v -70.02 c 47.32,54.6 117.14,81.89 209.43,81.89"
         style="fill:#3f3833;fill-opacity:1;fill-rule:nonzero;stroke:none"
         id="path44" /><path
         d="m 9749.46,5097.53 c 14.97,10.27 26.04,25.71 33.13,46.3 v 45.09 h -66.27 c -54.43,0 -81.64,-18.21 -81.64,-54.59 0,-15.05 5.72,-27.51 17.16,-37.4 11.42,-9.9 27,-14.82 46.74,-14.82 18.93,0 35.88,5.14 50.88,15.42 m 210.62,419.57 c 59.92,-51.04 89.92,-129.58 89.92,-235.61 v -348.93 h -248.48 v 85.45 c -30.76,-64.87 -91.89,-97.32 -183.39,-97.32 -51.3,0 -94.87,8.91 -130.75,26.71 -35.92,17.81 -63.13,41.92 -81.66,72.4 -18.55,30.45 -27.8,64.67 -27.8,102.65 0,64.1 24.44,112.77 73.37,146 48.89,33.23 123.04,49.84 222.43,49.84 h 107.68 c -8.69,50.63 -49.3,75.96 -121.86,75.96 -29.2,0 -58.79,-4.55 -88.75,-13.64 -29.99,-9.12 -55.62,-21.58 -76.91,-37.39 l -85.18,176.84 c 37.04,22.94 81.81,40.95 134.28,54 52.47,13.06 104.72,19.59 156.77,19.59 113.61,0 200.38,-25.52 260.33,-76.55"
         style="fill:#3f3833;fill-opacity:1;fill-rule:nonzero;stroke:none"
         id="path46" /><g
         id="g48"><g
           id="g50"
           clip-path="url(#clipPath54)"><path
             d="m 709.961,4963.54 c 0,-77.57 -3.871,-155.16 -12.449,-232.25 v 0 c -4.082,-36.7 -20.524,-212.82 -53.492,-212.82 v 0 h 131.871 v 642.89 c 0,0 -65.93,-32.97 -65.93,-197.82"
             style="fill:url(#linearGradient62);fill-opacity:1;fill-rule:nonzero;stroke:none"
             id="path64" /></g></g><g
         id="g66"><g
           id="g68"
           clip-path="url(#clipPath72)"><path
             d="M 775.891,4518.47 H 907.77 c -32.969,0 -49.411,176.12 -53.5,212.82 v 0 c -8.579,77.09 -12.442,154.68 -12.442,232.25 v 0 c 0,164.85 -65.937,197.82 -65.937,197.82 v 0"
             style="fill:url(#linearGradient80);fill-opacity:1;fill-rule:nonzero;stroke:none"
             id="path82" /></g></g><g
         id="g84"><g
           id="g86"
           clip-path="url(#clipPath90)"><path
             d="m 759.41,5161.36 h 32.9688 v 511.012 H 759.41 Z"
             style="fill:url(#linearGradient98);fill-opacity:1;fill-rule:nonzero;stroke:none"
             id="path100" /></g></g><g
         id="g102"><g
           id="g104"
           clip-path="url(#clipPath108)"><path
             d="m 701.711,5219.05 c 0,-40.97 33.211,-74.17 74.18,-74.17 v 0 c 40.968,0 74.187,33.2 74.187,74.17 v 0 c 0,40.97 -33.219,74.18 -74.187,74.18 v 0 c -40.969,0 -74.18,-33.21 -74.18,-74.18"
             style="fill:url(#linearGradient116);fill-opacity:1;fill-rule:nonzero;stroke:none"
             id="path118" /></g></g><g
         id="g120"><g
           id="g122"
           clip-path="url(#clipPath126)"><path
             d="M 1859.82,6731.51 460,5520.4 2245.49,5701.65 3774.54,6902.99 Z"
             style="fill:url(#linearGradient134);fill-opacity:1;fill-rule:nonzero;stroke:none"
             id="path136" /></g></g><g
         id="g138"><g
           id="g140"
           clip-path="url(#clipPath144)"><g
             id="g146" /><g
             id="g164"><g
               clip-path="url(#clipPath150)"
               opacity="0.100006"
               id="g162"><g
                 id="g160"><g
                   clip-path="url(#clipPath154)"
                   id="g158"><path
                     d="m 1237.46,5599.32 1063.24,-34.1 860.67,856.01 -910.14,-724.14 z"
                     style="fill:#08517a;fill-opacity:1;fill-rule:nonzero;stroke:none"
                     id="path156" /></g></g></g></g></g></g></g></g></svg>
