<svg width="535" height="435" viewBox="0 0 535 435" fill="none" xmlns="http://www.w3.org/2000/svg">
<path d="M125.362 238.306C125.362 346.936 213.425 435 322.059 435C430.69 435 518.755 346.936 518.755 238.306C518.755 165.777 479.499 102.416 421.076 68.3125C391.994 51.3363 358.162 41.6099 322.059 41.6099C213.425 41.6099 125.362 129.673 125.362 238.306" fill="url(#paint0_linear)"/>
<path d="M40.3055 312.731C40.3055 325.239 39.6814 337.75 38.2982 350.181C37.64 356.099 34.9887 384.497 29.6727 384.497H50.9366V280.833C50.9366 280.833 40.3055 286.149 40.3055 312.731" fill="url(#paint1_linear)"/>
<path d="M50.9365 384.497H72.2017C66.8855 384.497 64.2343 356.099 63.5749 350.181C62.1916 337.75 61.5687 325.239 61.5687 312.731C61.5687 286.149 50.9365 280.833 50.9365 280.833" fill="url(#paint2_linear)"/>
<path d="M48.279 280.833H53.5952V198.434H48.279V280.833Z" fill="url(#paint3_linear)"/>
<path d="M38.9753 271.531C38.9753 278.137 44.3304 283.491 50.9366 283.491C57.5425 283.491 62.899 278.137 62.899 271.531C62.899 264.925 57.5425 259.569 50.9366 259.569C44.3304 259.569 38.9753 264.925 38.9753 271.531Z" fill="url(#paint4_linear)"/>
<path d="M225.717 27.6508L0 222.939L287.905 193.713L534.461 7.12015e-05L225.717 27.6508Z" fill="url(#paint5_linear)"/>
<g opacity="0.100006">
<g opacity="0.100006">
<g opacity="0.100006">
<path opacity="0.100006" d="M125.363 210.213L296.808 215.712L435.589 77.6825L288.831 194.448L125.363 210.213Z" fill="#08517A"/>
</g>
</g>
</g>
<defs>
<linearGradient id="paint0_linear" x1="125.362" y1="238.306" x2="518.753" y2="238.306" gradientUnits="userSpaceOnUse">
<stop stop-color="#50BEF5"/>
<stop offset="0.0251592" stop-color="#50BEF5"/>
<stop offset="1" stop-color="#47D7E1"/>
</linearGradient>
<linearGradient id="paint1_linear" x1="29.6723" y1="332.666" x2="50.9367" y2="332.666" gradientUnits="userSpaceOnUse">
<stop stop-color="#50BEF5"/>
<stop offset="0.0251592" stop-color="#50BEF5"/>
<stop offset="1" stop-color="#47D7E1"/>
</linearGradient>
<linearGradient id="paint2_linear" x1="72.2012" y1="332.666" x2="50.9367" y2="332.666" gradientUnits="userSpaceOnUse">
<stop stop-color="#50BEF5"/>
<stop offset="0.0251592" stop-color="#50BEF5"/>
<stop offset="1" stop-color="#47D7E1"/>
</linearGradient>
<linearGradient id="paint3_linear" x1="48.2787" y1="239.634" x2="53.5948" y2="239.634" gradientUnits="userSpaceOnUse">
<stop stop-color="#50BEF5"/>
<stop offset="0.0251592" stop-color="#50BEF5"/>
<stop offset="1" stop-color="#47D7E1"/>
</linearGradient>
<linearGradient id="paint4_linear" x1="38.9756" y1="271.531" x2="62.8981" y2="271.531" gradientUnits="userSpaceOnUse">
<stop stop-color="#50BEF5"/>
<stop offset="0.0251592" stop-color="#50BEF5"/>
<stop offset="1" stop-color="#47D7E1"/>
</linearGradient>
<linearGradient id="paint5_linear" x1="-11.2776" y1="178.08" x2="544.127" y2="38.4516" gradientUnits="userSpaceOnUse">
<stop stop-color="#50BEF5"/>
<stop offset="0.0251592" stop-color="#50BEF5"/>
<stop offset="1" stop-color="#47D7E1"/>
</linearGradient>
</defs>
</svg>
