<svg width="1547" height="435" viewBox="0 0 1547 435" fill="none" xmlns="http://www.w3.org/2000/svg">
<path d="M125.362 238.306C125.362 346.936 213.425 435 322.059 435C430.69 435 518.755 346.936 518.755 238.306C518.755 165.777 479.499 102.416 421.076 68.3125C391.994 51.3363 358.162 41.6099 322.059 41.6099C213.425 41.6099 125.362 129.673 125.362 238.306" fill="url(#paint0_linear)"/>
<path d="M475.829 283.66V317.726H364.788V183.761H473.349V217.826H409.05V233.518H465.527V266.053H409.05V283.66" fill="white"/>
<path d="M540.315 317.726H583.436V175.722H540.315V317.726Z" fill="#3F3833"/>
<path d="M693.902 244.236C690.977 246.662 689.068 250.107 688.177 254.572H721.757C720.867 250.236 718.958 246.821 716.036 244.333C713.108 241.845 709.419 240.6 704.97 240.6C700.516 240.6 696.827 241.816 693.902 244.236V244.236ZM761.443 275.431H688.94C690.469 279.388 693.012 282.417 696.574 284.521C700.132 286.627 704.588 287.68 709.928 287.68C714.509 287.68 718.353 287.107 721.475 285.958C724.587 284.809 727.988 282.833 731.68 280.025L754.194 302.798C744.016 314.027 728.818 319.64 708.595 319.64C696.001 319.64 684.935 317.314 675.395 312.655C665.853 308 658.476 301.523 653.261 293.231C648.046 284.937 645.44 275.623 645.44 265.29C645.44 254.829 648.016 245.48 653.166 237.251C658.318 229.021 665.38 222.61 674.344 218.018C683.314 213.424 693.392 211.128 704.588 211.128C715.143 211.128 724.777 213.233 733.491 217.444C742.203 221.654 749.14 227.842 754.289 236.006C759.442 244.175 762.017 253.935 762.017 265.29C762.017 265.929 761.824 269.309 761.443 275.431" fill="#3F3833"/>
<path d="M848.349 312.75C838.998 308.158 831.684 301.715 826.407 293.423C821.126 285.129 818.49 275.751 818.49 265.289C818.49 254.829 821.126 245.48 826.407 237.251C831.684 229.021 838.998 222.61 848.349 218.018C857.697 213.424 868.286 211.128 880.115 211.128C892.834 211.128 903.709 213.874 912.742 219.358C921.772 224.843 928.004 232.436 931.438 242.132L898.049 258.589C893.979 249.404 887.939 244.811 879.926 244.811C874.836 244.811 870.605 246.599 867.238 250.169C863.866 253.742 862.181 258.781 862.181 265.289C862.181 271.924 863.866 277.028 867.238 280.599C870.605 284.171 874.836 285.958 879.926 285.958C887.939 285.958 893.979 281.365 898.049 272.179L931.438 288.636C928.004 298.335 921.772 305.926 912.742 311.41C903.709 316.898 892.834 319.639 880.115 319.639C868.286 319.639 857.697 317.346 848.349 312.75" fill="#3F3833"/>
<path d="M1066.71 314.09C1060.22 317.789 1051.38 319.639 1040.19 319.639C1025.56 319.639 1014.31 316.098 1006.42 309.018C998.532 301.937 994.591 291.317 994.591 277.155V250.361H980.28V218.784H994.591V189.501H1037.71V218.784H1059.08V250.361H1037.71V276.77C1037.71 279.961 1038.54 282.45 1040.19 284.235C1041.84 286.022 1044.01 286.914 1046.68 286.914C1050.37 286.914 1053.61 285.958 1056.41 284.044" fill="#3F3833"/>
<path d="M1240.14 213.043V317.726H1199.12V307.776C1195.3 311.731 1190.85 314.697 1185.77 316.674C1180.68 318.652 1175.27 319.64 1169.55 319.64C1156.32 319.64 1145.7 315.59 1137.68 307.49C1129.67 299.388 1125.66 287.172 1125.66 270.839V213.043H1168.78V263.373C1168.78 270.523 1169.93 275.623 1172.22 278.684C1174.51 281.747 1177.88 283.279 1182.33 283.279C1186.53 283.279 1190.03 281.589 1192.82 278.208C1195.62 274.827 1197.02 269.501 1197.02 262.227V213.043" fill="#3F3833"/>
<path d="M1382.47 211.127V249.404C1379.03 248.895 1375.86 248.637 1372.93 248.637C1358.17 248.637 1350.8 256.167 1350.8 271.221V317.726H1307.68V213.042H1348.7V224.332C1356.33 215.528 1367.59 211.127 1382.47 211.127Z" fill="#3F3833"/>
<path d="M1497.9 291.126C1500.31 289.47 1502.1 286.98 1503.24 283.66V276.389H1492.56C1483.78 276.389 1479.39 279.325 1479.39 285.192C1479.39 287.618 1480.31 289.627 1482.16 291.222C1484 292.819 1486.51 293.612 1489.7 293.612C1492.75 293.612 1495.48 292.783 1497.9 291.126V291.126ZM1531.86 223.471C1541.52 231.701 1546.36 244.365 1546.36 261.462V317.726H1506.29V303.948C1501.33 314.408 1491.48 319.64 1476.72 319.64C1468.45 319.64 1461.43 318.204 1455.64 315.334C1449.85 312.462 1445.46 308.574 1442.47 303.659C1439.48 298.749 1437.99 293.231 1437.99 287.107C1437.99 276.771 1441.93 268.923 1449.82 263.565C1457.7 258.207 1469.66 255.529 1485.69 255.529H1503.05C1501.65 247.365 1495.1 243.28 1483.4 243.28C1478.69 243.28 1473.92 244.014 1469.09 245.48C1464.25 246.95 1460.12 248.959 1456.69 251.509L1442.95 222.994C1448.93 219.295 1456.15 216.391 1464.61 214.286C1473.07 212.18 1481.49 211.128 1489.88 211.128C1508.2 211.128 1522.2 215.243 1531.86 223.471" fill="#3F3833"/>
<path d="M40.3055 312.731C40.3055 325.239 39.6814 337.75 38.2982 350.181C37.64 356.099 34.9887 384.497 29.6727 384.497H50.9366V280.833C50.9366 280.833 40.3055 286.149 40.3055 312.731" fill="url(#paint1_linear)"/>
<path d="M50.9365 384.497H72.2017C66.8855 384.497 64.2343 356.099 63.5749 350.181C62.1916 337.75 61.5687 325.239 61.5687 312.731C61.5687 286.149 50.9365 280.833 50.9365 280.833" fill="url(#paint2_linear)"/>
<path d="M48.279 280.833H53.5952V198.434H48.279V280.833Z" fill="url(#paint3_linear)"/>
<path d="M38.9753 271.531C38.9753 278.137 44.3304 283.491 50.9366 283.491C57.5425 283.491 62.899 278.137 62.899 271.531C62.899 264.925 57.5425 259.569 50.9366 259.569C44.3304 259.569 38.9753 264.925 38.9753 271.531Z" fill="url(#paint4_linear)"/>
<path d="M225.717 27.6508L0 222.939L287.905 193.713L534.461 5.59427e-05L225.717 27.6508Z" fill="url(#paint5_linear)"/>
<g opacity="0.100006">
<g opacity="0.100006">
<g opacity="0.100006">
<path opacity="0.100006" d="M125.363 210.213L296.808 215.712L435.589 77.6825L288.831 194.448L125.363 210.213Z" fill="#08517A"/>
</g>
</g>
</g>
<defs>
<linearGradient id="paint0_linear" x1="125.362" y1="238.306" x2="518.753" y2="238.306" gradientUnits="userSpaceOnUse">
<stop stop-color="#50BEF5"/>
<stop offset="0.0251592" stop-color="#50BEF5"/>
<stop offset="1" stop-color="#47D7E1"/>
</linearGradient>
<linearGradient id="paint1_linear" x1="29.6723" y1="332.666" x2="50.9367" y2="332.666" gradientUnits="userSpaceOnUse">
<stop stop-color="#50BEF5"/>
<stop offset="0.0251592" stop-color="#50BEF5"/>
<stop offset="1" stop-color="#47D7E1"/>
</linearGradient>
<linearGradient id="paint2_linear" x1="72.2012" y1="332.666" x2="50.9367" y2="332.666" gradientUnits="userSpaceOnUse">
<stop stop-color="#50BEF5"/>
<stop offset="0.0251592" stop-color="#50BEF5"/>
<stop offset="1" stop-color="#47D7E1"/>
</linearGradient>
<linearGradient id="paint3_linear" x1="48.2787" y1="239.634" x2="53.5948" y2="239.634" gradientUnits="userSpaceOnUse">
<stop stop-color="#50BEF5"/>
<stop offset="0.0251592" stop-color="#50BEF5"/>
<stop offset="1" stop-color="#47D7E1"/>
</linearGradient>
<linearGradient id="paint4_linear" x1="38.9756" y1="271.531" x2="62.8981" y2="271.531" gradientUnits="userSpaceOnUse">
<stop stop-color="#50BEF5"/>
<stop offset="0.0251592" stop-color="#50BEF5"/>
<stop offset="1" stop-color="#47D7E1"/>
</linearGradient>
<linearGradient id="paint5_linear" x1="-11.2776" y1="178.08" x2="544.127" y2="38.4516" gradientUnits="userSpaceOnUse">
<stop stop-color="#50BEF5"/>
<stop offset="0.0251592" stop-color="#50BEF5"/>
<stop offset="1" stop-color="#47D7E1"/>
</linearGradient>
</defs>
</svg>
